<svg xmlns="http://www.w3.org/2000/svg" viewBox="0 0 1700 264"><defs><style>.cls-1{fill:none;}.cls-2{fill:#90cdeb;}.cls-3{fill:#61aed3;}</style></defs><title>wave_01_pc</title><g id="Layer_2" data-name="Layer 2"><g id="Layer_1-2" data-name="Layer 1"><path class="cls-1" d="M566,163.36C946.76,305.38,1242.51,17.5,1493,2c74.61-4.62,145.49,1.56,207,11.85V0H0V27.8C149.13,17.69,349.35,82.55,566,163.36Z"/><path class="cls-2" d="M1493,2C1242.51,17.5,946.76,305.38,566,163.36,349.35,82.55,149.13,17.69,0,27.8v44c108.06,10.47,260.52,33.47,379.57,83.73,316,133.4,428.25,108.61,802-24C1402.16,53.27,1576.18,60.11,1700,90.48V13.85C1638.49,3.56,1567.61-2.62,1493,2Z"/><path class="cls-3" d="M1181.57,131.53c-373.75,132.61-486,157.4-802,24C260.52,105.26,108.06,82.27,0,71.8V264H1700V90.48C1576.18,60.11,1402.16,53.27,1181.57,131.53Z"/></g></g></svg>