<svg xmlns="http://www.w3.org/2000/svg" viewBox="0 0 640 168"><defs><style>.cls-1{fill:none;}.cls-2{fill:#90cdeb;}.cls-3{fill:#61aed3;}</style></defs><title>wave_1_sp</title><g id="Layer_2" data-name="Layer 2"><g id="Layer_1-2" data-name="Layer 1"><path class="cls-1" d="M640,26.33V0H0V28C63.1,42.09,133.64,66.4,207.49,93.94,377.5,157.33,518.12,72.17,640,26.33Z"/><path class="cls-2" d="M566.7,78.68A694,694,0,0,1,640,57V26.33c-121.88,45.85-262.5,131-432.51,67.61C133.64,66.4,63.1,42.09,0,28V58.09A700.45,700.45,0,0,1,104.14,92.51C286.39,169.43,351.13,155.14,566.7,78.68Z"/><path class="cls-3" d="M566.7,78.68c-215.57,76.46-280.31,90.75-462.56,13.83A700.45,700.45,0,0,0,0,58.09V168H640V57A694,694,0,0,0,566.7,78.68Z"/></g></g></svg>