<svg xmlns="http://www.w3.org/2000/svg" viewBox="0 0 163.54 170.44"><defs><style>.cls-1{fill:#f9c8a4;}.cls-1,.cls-25{stroke:#8c4823;}.cls-1,.cls-2,.cls-3,.cls-4,.cls-5,.cls-6,.cls-7{stroke-width:0.35px;}.cls-2{fill:#d0bfdd;}.cls-19,.cls-2{stroke:#8d759e;}.cls-3{fill:#f2c7dd;}.cls-20,.cls-3{stroke:#b74e52;}.cls-4{fill:#bde4f7;}.cls-22,.cls-4{stroke:#5b81c1;}.cls-5{fill:#c6e0aa;}.cls-21,.cls-5{stroke:#4a6e33;}.cls-6{fill:#e0ebb3;}.cls-24,.cls-6{stroke:#8c9a29;}.cls-7{fill:#81c79e;}.cls-23,.cls-7{stroke:#48886b;}.cls-11,.cls-12,.cls-13,.cls-14,.cls-15,.cls-16,.cls-8{font-size:9.92px;font-family:KozGoPr6N-Bold-90ms-RKSJ-H, Kozuka Gothic Pr6N;}.cls-8{fill:#5b81c1;}.cls-9{letter-spacing:-0.03em;}.cls-10{letter-spacing:-0.01em;}.cls-11{fill:#48886b;}.cls-12{fill:#8c9a29;}.cls-13{fill:#8c4823;}.cls-14{fill:#8d759e;}.cls-15{fill:#b74e52;}.cls-16{fill:#4a6e33;}.cls-17{letter-spacing:-0.02em;}.cls-18{letter-spacing:0em;}.cls-19,.cls-20,.cls-21,.cls-22,.cls-23,.cls-24,.cls-25{fill:none;stroke-miterlimit:10;}</style></defs><title>map_02</title><g id="Layer_2" data-name="Layer 2"><g id="レイヤー_6" data-name="レイヤー 6"><polygon class="cls-1" points="48.97 55.95 48.65 56.15 48.16 59.2 48.55 59.38 48.95 59.31 49.24 58.98 48.97 55.95 48.97 55.95 48.97 55.95"/><path class="cls-1" d="M49.38,59.49l0,1.65-.75.91,0,.75.62.47-.75.13-.52.86.13.44.63.19-.1.49-.86,0-.66-1-.37,1,1,.54a4.31,4.31,0,0,0,.64-.08s1.32-.68,1.32-.68l1-1.55.74-1.56s-.65-.4-.55-.41a5.3,5.3,0,0,0,.7-.33l-.27-.46.64-.12.25-.4L51.68,60l.73-.36.35-.82L52.62,57l-1,.11.1.88-.48,0,0,.86-1.81.58Z"/><path class="cls-1" d="M38.71,63.07c.06-.07.5-.65.5-.65l.84-.23.14-.42.37-.06a11.75,11.75,0,0,1,.56,1.13s-.59.35-.59.35l-.13.56-.55,0-.66-.6s-.55,0-.49-.1Z"/><path class="cls-1" d="M40.13,66.94l-.31,1.33L40,69l.24.39L40,69.8l-.35.3-.25.77.26.32,0,.48-.44.07a2,2,0,0,1-.17-.4s-.43.2-.42.27a5.4,5.4,0,0,1-.13.56l-.87.31-.35.4.38,0,.66-.36.14.47.3.36a4.92,4.92,0,0,1-.48.41,4,4,0,0,0-.64.12l-.48.52a1.68,1.68,0,0,1,0,.41,11.05,11.05,0,0,0,1,.58s.67.67.67.67,0,.58,0,.55,0,1,0,1l.07,1,.15.68s.78.39.75.36a7.32,7.32,0,0,1-.06-.85l-.21-.53.49-.31.49.17,0-.76-.35-.59.24-.43.17-.87,0-.69.84.28.3-.57.87-.78v-.82l-.54-.37-1,.56-.94.24L40.13,72l.16-1.52.55-1.72-.53-.65.2-1-.39-.14Z"/><path class="cls-1" d="M40.36,65s.74.73.74.73l-.36.2.3.87-.68-.33-.16-1.19a1.85,1.85,0,0,0,.15-.28Z"/><polygon class="cls-1" points="36.66 75.51 37.84 75.66 38.31 75.96 38.5 77.19 38.52 77.87 37.36 77.48 36.54 77.51 36.16 76.57 36.03 75.76 36.66 75.51 36.66 75.51 36.66 75.51"/><polygon class="cls-1" points="36.08 77.4 36.81 78.44 36.52 79.98 36.11 80.49 35.02 78.72 34.25 78.6 34.2 77.99 34.72 77.57 35.17 78.02 35.81 78.31 35.55 77.61 35.98 77.89 36.08 77.4 36.08 77.4 36.08 77.4"/><polygon class="cls-1" points="33.91 79 34.8 79.49 35.28 80.45 34.58 81.63 33.47 81.4 32.91 80.76 33.05 79.48 33.42 79.39 33.95 80.44 34.41 80.24 33.91 79 33.91 79 33.91 79"/><path class="cls-1" d="M29.17,83l1.19-.64s.21.57.25.53l.4-.58.45.51.07-1.31a2.06,2.06,0,0,0,.39.18s.48-1,.48-1l.73,1.45.74.25-.19,1.63.14.44,1.53,1.22-.17.49L33,86.49l-.35-.56-1.1.43,0,1,.71.36,0,.58-.49.76a2.17,2.17,0,0,1-.48,0s-.19-.7-.19-.7L30.77,88,28.58,88l-.17.49-.72.05-.1-.44-.9-.14.14-.94.41-.06,0,.61H28l.47-1.89-.6-1.19.2-.46-.36-.73-.15-1.09.43-.62.72,0,.45.51V83Z"/><path class="cls-1" d="M41.68,15.37s.23-1.39.22-1.43.4-1.59.4-1.59l1.84,0L45,10.45l.53-.47,1.87,1.09L46.8,12l.58.19-.56,1.27-.8-.65-.33.64,1.13.58.15.74,0,.8s-.21,1-2.23,3.52l-.28.68.44.16-.32,1.44.7-.71-.15,1.76.58.24-.25,1-.78,1-.55-.48L44,22.51l-.44-.25-.63,1L42.3,23l.36-.83L42.22,22l-.48,1.07s-1.57.45-1.58.31,0-.61,0-.61l1.26-.19,0-1.94.86-1.06-.89.07.07-1L42.23,17l.82-.44-1.37-1.22Z"/><path class="cls-1" d="M39.61,24.25l.75-.1.12,1,1.16-.28.63.28-.57-.71a4.71,4.71,0,0,0,.45-.22s1,1.1,1,1.1l.75-.1.69-.24h.61l-.56.7-1,.27-.15,1.71L43,28.2s-.61,3.16-.61,3.21A17.45,17.45,0,0,1,40.69,33c-.05,0-.69-1-.69-1l-.72.48.07-2.79.13-2.7.12-2.74Z"/><path class="cls-1" d="M55.09,40.67l.79-.4,1.88.34-.29,1.22,1.19.77s0,.31,0,.31l-.86-.07s0,.59,0,.55a4.15,4.15,0,0,1,.64-.08l.08,1s-1.94-.2-1.89,1.24h-.89L55.28,45l.06-.55-.71.12-.44-.82,1,0-.66-.53L54.37,42l1.05.3-.5-.68.17-.94Z"/><path class="cls-1" d="M71.81,73.51l-1,.55-1.23,1.22,1,.87,1.88,0L74,74.77l1.95-.43,1.3.94,1,2.19.05,2-.59,1,.24.64-1.21,1.41-1.2.28-1.29,1.7L73,84.65l-1.51-1.3-.27-1.11,2.21-2-.08-1-.57-.05-.24-.64.24-.58L71.2,77.9l-1.53-.26L68,79.46,66.19,79l-.12.86L64.46,83.6a9.18,9.18,0,0,0-1.47.58c0,.09-1.53,2.19-1.53,2.19l-1.3.29.87-.92.89-2,.41-.78-.9-.69,1.3-.29.64-1.56-.75.72-1.19-1.37,0-.62-1-.54.27-.82-.89,0-.39.41-1-.68-1-2.14s-.91-1.39-.91-1.44a5.62,5.62,0,0,0-.6-.47l0-1.27.48-.46-.26-1.54.54-.94L56.92,68l1,.16.22.45.4.3.1.65.59-.33.22.36-.77,1,.34.73.79-.72.34.12.9.12.59,1-.32.73L61.43,74,61,74l-.11-.84-.27.21s-.06,1.14,0,1.13l.7-.1v.61l-.45.32a2.68,2.68,0,0,1,0,.61s1.82.95,1.82.95l0-.8.45.39.39-1.11.35.3.26-.3.93.4,1,.44.07.32,1-.17S66,75.23,66,75.23l.36-.17-.16-.27-.63-.19-.7-1.17-.14-1.22.43-.55.1-1.14L63,68.61l-.7.05-.81,1.1-.25-.17v-.66l-.9-.69h-.61l-.54-.86.32-.73-1.43-.18-.28.63-1.2.33-.28-.59.58-.47-.3-.87-.56.14L56,64.8l-.33-.63-.79.77-.32-1.06-1.4.2-.4-2.23L54.4,60.3l-.88.16-.45-.39-.13-.46.37-.12L53.19,58l2.23.12L55.95,57l.35.21-.2,1.05,1.3.37.7-.71.53.2.54-.32.3-.05.11,1.11-.72,1.75,1.53,1.58s.19,1.3.09,1.22.86,1.44.86,1.44l2.92,0,.8,1.83-.73.34.58,1.37,1.46.55,2,2.11,3,.63,1.43.17-1,1.68Z"/><path class="cls-2" d="M76.29,62.8,79,59.2l2.54-2.55-.23-3-1.05-.2-1.9,1.09-.14.67-.65.14-.55-1.09-3.79-1.51-5.05.57-1.7,0,0-.76,2.11-.82,1.67-1.63-1.67.41.31-.87-.84.16-.71-.7,1.87-.24.43-.6-.14-.65L71.1,46.5l.67.14-.12.86,1.44.36-.3,1L74,48.64l2.5-.56.8-1.85.2-1.05-.66,0-1.16.94-.15.58-1.84-.62-.62-.71.43-.6.63.8,1.05.2L77,43.88l1.22-1.32-.32-1.67.58-2.31L79.7,38l-.07-.94,1.33.09.32.45s1.07.39,2.38-.93l.46-1.36h2.55l.62-.61L89,34.58l1.63,1.58,1.27-.66.64-1.56L94,33.45l-.45,4-.67,1.18.87.31-.07,1.61s3.42,5.31,3.51,5.3a8.65,8.65,0,0,0,.9-.54l1.64.54.24,2-.51,2-4.54-.22L92,52.47l-.58,2.31s-1,1.68-1,1.77.76,2.58.76,2.58l-1,.55.39,1.48,1.49.93-.91,3-1.65-.63-3.3-1.26-.69,2.13-2.47-.19,0,1L81,67.73l.69,1.65-2.62.29L79,68.48l-.16-1.31-.75-.82-.55-1.47-.74-.23-.52-1.85Z"/><path class="cls-3" d="M60.4,62.21l-1.53-1.58.72-1.75.78.7.83,1s.3-.21.29-.27-.37-.73-.37-.73l.32-1.66.33-.65-.13-.93-.82-.06s-1.56-1.52-1.5-1.52a9.58,9.58,0,0,0,.54-1.11l1,1.06.35-.34-.76-1.77.66-.36.68-.93,1.26,0,1.07.8-.46,1.36,1,.93s1.06.74,1.69-.07l.21-.93,1.7,0,5.05-.57,3.79,1.51.55,1.09.65-.14.14-.67,1.9-1.09,1.05.2.23,3L79,59.2l-2.75,3.6.52,1.85-2.08,0-.22-.36-1.4-1-2.3,3.29-.7-.51.15.74,1.17,1.8.91,2,1,.58v.71h-.57l-1.43-.17-3-.63-2-2.11-1.46-.55L64.34,67l.73-.34-.8-1.83-2.92,0s-1-1.53-.86-1.44-.09-1.22-.09-1.22Z"/><path class="cls-4" d="M93.83,101.57l1.87-1.46,1.64.54,1.07-2.06,3,.44-.11-1.5-1.84-1.84.2-1.05,1.55-1.91L100,91.58l-.21-1.49L99,89.67l-1.51-2.53,1.06-3.47,1.49-.3.58-1.08.48-2.39,1,.21.6-2,1.13-1.22c-.55,0,.74-2.6.75-2.6l1.66-.5,1.12,1,1.48-.4,1.72-1,1.12,1-.29,1.15,1.93.51s.71-.62.79-.72,3.46-.45,3.46-.45l.88-2.14,3.23.32,0,1.89.37,1.2-.32.78.16.84s-.76-.13-.77-.23a13.1,13.1,0,0,0-1.14,1.22L119,80l.58.15-.65,1.37-.92.35-.65,1.37.29,1.39.63-.42.55,1-1.05,1-1.07-.39-.1,1.23.66-.05.35.92-1.1.46-.22,2.09s-1.2,1.6-2.11,8.27c0,0-1.52,7.38-1.76,9.19,0,0-.13,3.31,1.31,3.58l-.75,2.6.13,1.69.19,1.31s-2,1.66-1.92,3.35a16.64,16.64,0,0,0,.16,2.16,6.66,6.66,0,0,1-.8.72l.63.89-1.19,1.79.55,1a2.1,2.1,0,0,1-.45.32,8.5,8.5,0,0,1-.84-1.16l-1,.64-1.07-.39.08-1.42-1.58-.92-1-.21,0-1,.9-.63.08-2.65-1.29-2.07-.64.33-.94.07-1.2-.95-.59,1-1.41-3.67-1.26-.47.31-.87L96,112.15l-.36-1,.6-2L95,107.51l-1.42-.08-1.16-1.61-.37-1.2L90,103.46l.26-1.62,3.56-.27Z"/><path class="cls-5" d="M92.08,62.08l-1.49-.93-.39-1.48,1-.55s-.75-2.49-.76-2.58,1-1.77,1-1.77L92,52.47l2.9-2.86,4.54.22.51-2-.24-2,1.9.14,1.09.77,4-.3L108,45l1.27-2,1.67-.31.23-.68,1.82.33L114.87,44l1.07,1.62.32,1.67-.21,1,.28,1.2-.8,1.85.15.74-.88-.41-1.49.3.82.88,0,.47-1.58.31,0,.66a5.6,5.6,0,0,1-1.3.29l-.61-.52s-1.81-.24-.8,1.95c0,0-.1,2.46,1.94,1.93l1.05.2,2.54-1.32,3.2,1.08,3-1.08-.9,1.86.24.64-1.17.75,0,1-.5.89a7.35,7.35,0,0,0,1.35.37,8.62,8.62,0,0,1,1.16-.84l.59.33L121,63.49l2.19.31,0-.76.43.63,1-.08a12.49,12.49,0,0,1,.93-1.39,13.77,13.77,0,0,1,.06,2l-2.33.36-.3,1a8.52,8.52,0,0,1-.56,1.36A11.9,11.9,0,0,0,123.56,68l.83-.25.76.75.42-.74.29.73,1.19-.47.91.17s.17.36.12.37l-1.3.29,0,.33-.67-.19-.19.63-.73-.32.08,1.13.68-.34.31.31-1.21.89-.65.76.32.54.25-.4.36.44.05-.57.81.08,0,.33s-.85,1.24-.9,1.25-.82-.27-.82-.27l0,.56-1.43-.17L123,75l-.47-.62v1.32l-.62.57-.37-1.2,0-1.89-3.23-.32L117.48,75s-3.37.35-3.46.45-.79.72-.79.72l-1.93-.51.29-1.15-1.12-1-1.72,1-1.48.4-1.12-1L105,72.9l-1.4-1,0-2.73L102,65.77l-1.6-2.52-1.73-1.66H96.29l-.83.25-.54,1.55s1.62,1.48,1.53,1.58a18.4,18.4,0,0,0-.33,1.91l-.79.72-.92-1-1.05-.2-2.18-1.35.91-3Z"/><path class="cls-6" d="M84,88.63l.12-1,.53-.42-1.1-.77,2.36-2.44,1.25-.94-.53-.81-1.93.62-1.83.7L81.19,84,81,83.29l2.32-1.78.6-.8,1.34-1A11.38,11.38,0,0,0,85.17,78a3.76,3.76,0,0,1-.08-1L84,75.14l-1.44-.27-.17-1L80,72.61l-1-2.94,2.62-.29L81,67.73,83,66.16l0-1,2.47.19.69-2.13,3.3,1.26,1.65.63,2.18,1.35,1.05.2.92,1,.79-.72A18.4,18.4,0,0,1,96.45,65c.09-.1-1.53-1.58-1.53-1.58l.54-1.55.83-.25h2.36l1.73,1.66,1.6,2.52,1.57,3.37,0,2.73,1.4,1,1.2.85-1.66.5s-1.3,2.61-.75,2.6l-1.13,1.22-.6,2-1-.21-.48,2.39L100,83.37l-1.49.3-1.06,3.47L99,89.67l.79.41.21,1.49,1.22,1.14-1.55,1.91-.2,1.05,1.84,1.84.11,1.5-3-.44-1.07,2.06-1.64-.54-1.87,1.46-3.56.27-1.18-.66-.93-1.06-1.41-1.21-1.66,1.73-2.28,1-1.78.13-1.43-1.4.28-1.25.83-1.48.94-.07-.09-1.22,1.05-1s.27-2.66.26-2.75,2.07-2.51,2.07-2.51l-.11-1.41-.85,0Z"/><path class="cls-6" d="M77.62,87.41l1.25-.33a6.26,6.26,0,0,0,.72.84l.88-.87.86.12-1,3.66.09.61-1,.83h-.8l-.17-1-.42.69H76.74l-.41-.49-.4.93-.71-.09,0-.8s-.79-.51-.7-.56,0-.9,0-.9l3.06-2.64Z"/><path class="cls-6" d="M69.47,95.62l-1.13,0-.56-1.18.6-2.69s1.22-2,.83-3.41l-.84-.55L69,87.4l.32.49.63.19,1.42-1.24,2.31,0s.4,3.41.49,3.36a20.61,20.61,0,0,1,.13,2.39l.36-.26.43.72-.43.5.07.89-.78,1-.37-1.1-.49.41-.38,1.16.89-.07-.29.54-1,.31-1,2.05L70,99.26l.76,1.92a4.17,4.17,0,0,1-.74.15s-1.11-1.57-1.11-1.57l.27-1.44-1.33-.13,1.27-1.94.38-.64Z"/><polygon class="cls-6" points="78.93 93.49 79.55 93.54 78.98 94.81 77.61 95.29 78.18 94.78 78.31 93.97 78.93 93.49 78.93 93.49 78.93 93.49"/><polygon class="cls-6" points="79.94 83.7 80.69 83.6 81 84 80.89 85 81.01 85.98 79.7 86.22 79.99 84.97 79.18 84.89 79.94 83.7 79.94 83.7 79.94 83.7"/><polygon class="cls-6" points="71.53 100.33 72.06 99.91 72.08 98.96 73.41 99 73.79 98.5 74.86 99.51 74.25 100.12 74.28 100.54 74.93 100.49 75.02 101 74.31 101.62 73.92 103.35 73.47 102.96 72.44 102.42 72.35 101.3 71.53 100.33 71.53 100.33 71.53 100.33"/><polygon class="cls-6" points="76.06 95.45 76.59 96.17 75.95 97.07 75.16 97.22 75.16 96 76.06 95.45 76.06 95.45 76.06 95.45"/><polygon class="cls-7" points="64.45 112.79 64.79 111.78 65.59 111.67 67.2 113.01 67.14 112.21 67.5 112.04 67.77 113.72 67.06 113.73 66.27 114.45 65.81 113.3 64.45 112.79 64.45 112.79 64.45 112.79"/><path class="cls-7" d="M64.1,115.74s-.36,2.1-.41,2.11l-.89.11-.17.91L62.16,120l.48.06-.7,1.28-1.2-.29-.36-1,.43.11.49-1.64.44-1,1.38-.53.61-1.27.38,0Z"/><path class="cls-7" d="M75,114.12l.6-2s1.83-3.25-1.06-5.3l.64-1.46.21-1-1.05-.64.17-1.08,1-.77,1.44,0,.35.48,1.14,0,.65-.55.52-1.42,1.43,1.4,1.78-.13,2.28-1,1.66-1.73,1.41,1.21.93,1.06,1.18.66L90,103.46l2.07,1.17.37,1.2,1.16,1.61,1.42.08,1.25,1.6-.6,2,.36,1,2.89.82-.31.87,1.26.47L101.3,118l.59-1,1.2.95.94-.07.64-.33,1.29,2.07-.08,2.65-.9.63,0,1-1.62-.25s-2.87,2-2.34,4l2.55,1.32.13.46-.88.82.23.55,1.11-.27s-1.16,2.07-1.26,2.07l-1.77.23-.52,1.93-.29,1.15-3.14,2.12-1.22.09-2.87,2-1.08,2-.67-.14.49-1,.09-1.33-.7-.51s2-1.47,2-1.56,1-2.72,1-2.72l-.52-.62.91-1.77.23-3.22s-1.91-4.1-3.25-4.38l-.4-1.57.1-1.23-1.8-.05-1.49-1,.74-1.47,1.66-.5,1,.49.32,1.67.86.12s1.16.38,1.42-2.47l.67-1.18-1.07-1.62-1.82-.43L90.51,115s-3.3,1.29-2.32,3l-.46,1.45-.59.89.16.84-.22.87-.92,1.58-.09,1.23s.16,5.93,4.77,7l-.25,1.72-.59.89.39.16-.23.77-1-.12-.32.78-1.06-.3-1.11.27,0-.95s-.09-2.45-4.1-1.86l-2.76-.36,0,.66-2.06.25.39-1.07-1.06-.3.61-.61-1.36-.56.82-.44L77.2,130l-1.26-.47-1.35-1.69,1.26-.75,1.69,1.1c.58.15,7.29-7.15-1.81-12.69L75,114.12Z"/><path class="cls-7" d="M98.74,161s3.64-3.06,2.12-7.56l1.25-2.78.33-1.2s-.21-.22-.25-.22.87-1.57.87-1.57.61-.71.61-.61,1,2,1,2l-.35.31.28,2.53s-.48,1.07-.53,1.12.27,2.38.23,2.43l-.57.56s-.06,1.09-.1,1.19a5.74,5.74,0,0,1-1,.5l-.75,2.6.55,1.71-.23,1.95s-2.16.12-2.35,1.4l-.8-.65.11-1-.16-1.5L98.74,161Z"/><polygon class="cls-7" points="88.23 161.79 91.72 163.56 93.48 164.46 93.55 166.67 92.09 169.14 90.47 170.11 87.27 170.26 86.53 169.23 86.26 168.12 85.12 166.13 84.87 164.69 86.21 164.35 87.44 161.85 88.23 161.79 88.23 161.79 88.23 161.79"/><text class="cls-8" transform="translate(118.33 106.56)">MI<tspan class="cls-9" x="11.63" y="0">Y</tspan><tspan x="17.27" y="0">A</tspan><tspan class="cls-10" x="23.85" y="0">Z</tspan><tspan x="29.5" y="0">AKI</tspan></text><text class="cls-11" transform="translate(34.8 152.93)">KAGOSHIMA</text><text class="cls-12" transform="translate(1.5 110.1)">KUMAMOTO</text><text class="cls-13" transform="translate(0 50.71)">NAGASAKI</text><text class="cls-14" transform="translate(75.87 28.4)">FUKUOKA</text><text class="cls-15" transform="translate(54.26 8.73)">SAGA</text><text class="cls-16" transform="translate(125.76 55.08)">OI<tspan class="cls-17" x="10.1" y="0">T</tspan><tspan class="cls-18" x="15.38" y="0">A</tspan></text><line class="cls-19" x1="83.24" y1="31.14" x2="83.24" y2="45.53"/><line class="cls-20" x1="63.06" y1="11.81" x2="63.06" y2="57.98"/><line class="cls-21" x1="108.17" y1="50.71" x2="123.92" y2="50.71"/><line class="cls-22" x1="104.67" y1="101.84" x2="116.91" y2="101.84"/><line class="cls-23" x1="83.24" y1="128.81" x2="83.24" y2="142.17"/><polyline class="cls-24" points="69.61 92.4 47.39 92.4 47.39 100.93"/><polyline class="cls-25" points="29.58 53.48 29.58 61.49 49.33 61.49"/></g></g></svg>