<svg xmlns="http://www.w3.org/2000/svg" width="581" height="566.062" viewBox="0 0 581 566.062">
  <metadata><?xpacket begin="﻿" id="W5M0MpCehiHzreSzNTczkc9d"?>
<x:xmpmeta xmlns:x="adobe:ns:meta/" x:xmptk="Adobe XMP Core 5.6-c138 79.159824, 2016/09/14-01:09:01        ">
   <rdf:RDF xmlns:rdf="http://www.w3.org/1999/02/22-rdf-syntax-ns#">
      <rdf:Description rdf:about=""/>
   </rdf:RDF>
</x:xmpmeta>
                                                                                                    
                                                                                                    
                                                                                                    
                                                                                                    
                                                                                                    
                                                                                                    
                                                                                                    
                                                                                                    
                                                                                                    
                                                                                                    
                                                                                                    
                                                                                                    
                                                                                                    
                                                                                                    
                                                                                                    
                                                                                                    
                                                                                                    
                                                                                                    
                                                                                                    
                                                                                                    
                           
<?xpacket end="w"?></metadata>
<defs>
    <style>
      .cls-1 {
        fill: #ffdc33;
        fill-rule: evenodd;
      }
    </style>
  </defs>
  <path id="ストライプ" class="cls-1" d="M478.445,546.437q6.729,5.041,13.706,9.666L935.918,247.857q-2.209-7.931-4.912-15.774Zm71.432,39.214q9.151,3.471,18.5,6.333l377.5-262.218q0.278-9.543-.113-19.108Zm-38.338-17.785q7.808,4.332,15.841,8.183L943.788,286.806q-1.105-8.651-2.777-17.256Zm-61.7-45.973q5.787,5.667,11.841,10.962L923.292,212.211q-3.162-7.3-6.777-14.479ZM585.154,47.341a293.326,293.326,0,0,0-98.285,44.223,285.691,285.691,0,0,0-74.951,76.108ZM367.184,287.578l348.9-242.354q-11.042-2.29-22.241-3.737L370.807,265.874Q368.57,276.655,367.184,287.578Zm227.739,311.2q11.042,2.292,22.24,3.738L940.2,378.128q2.237-10.779,3.622-21.7ZM921.681,435.411a279.174,279.174,0,0,0,10.213-26.281L649.955,604.967q14.4,0.28,28.831-.839ZM425.27,494.541q4.923,6.243,10.133,12.147L906.466,179.482q-4.03-6.72-8.485-13.292ZM389.33,208.593a278.61,278.61,0,0,0-10.213,26.28L661.056,39.034q-14.4-.279-28.832.84Zm-24.2,105.644q-0.276,9.543.113,19.109l395.9-274.994q-9.151-3.471-18.5-6.333ZM725.856,596.662a293.324,293.324,0,0,0,98.285-44.222,285.637,285.637,0,0,0,74.951-76.109ZM367.222,357.2q1.106,8.652,2.778,17.258L799.472,76.137q-7.809-4.332-15.841-8.183Zm7.871,38.95q2.208,7.932,4.912,15.775L832.566,97.566q-6.729-5.042-13.706-9.666Zm29.451,68.375q4.032,6.72,8.485,13.292L885.74,149.462q-4.923-6.243-10.132-12.148Zm-16.826-32.729q3.162,7.3,6.778,14.479L861.175,122.11q-5.787-5.665-11.841-10.961Z" transform="translate(-365 -38.969)"/>
</svg>
