<svg xmlns="http://www.w3.org/2000/svg" width="19.011" height="22" viewBox="0 0 19.011 22"><path fill="#FFF" d="M1.118 7.69C.501 7.69 0 8.327 0 9.112v5.966c0 .783.501 1.421 1.118 1.421.618 0 1.118-.638 1.118-1.421V9.112c0-.785-.5-1.422-1.118-1.422zm2.244 8.664c0 .722.61 1.312 1.357 1.312h1.144v3.021c.001.725.609 1.313 1.359 1.313.749 0 1.356-.588 1.357-1.312v-3.021h1.853v3.021c0 .726.606 1.312 1.356 1.312s1.357-.588 1.357-1.312v-3.021h1.145c.746 0 1.357-.592 1.357-1.312V7.686H3.362v8.668zm14.53-8.664c-.617 0-1.118.637-1.118 1.422v5.966c0 .783.501 1.421 1.118 1.421s1.119-.638 1.119-1.421V9.112c0-.785-.502-1.422-1.119-1.422zm-5.258-5.658l.953-1.71a.212.212 0 0 0-.09-.296.228.228 0 0 0-.305.088l-.965 1.731a7.044 7.044 0 0 0-2.712-.535c-.979 0-1.906.196-2.73.544l-.97-1.74A.228.228 0 0 0 5.51.026a.216.216 0 0 0-.09.296l.958 1.72c-1.475.743-2.567 1.997-2.955 3.481a4.744 4.744 0 0 0-.139 1.078h12.458v-.343a5.18 5.18 0 0 0-.086-.542c-.342-1.574-1.471-2.909-3.022-3.684zM7.263 4.413a.562.562 0 0 1-.568-.554c0-.306.255-.554.568-.554.314 0 .569.248.569.554a.562.562 0 0 1-.569.554zm4.473 0a.56.56 0 0 1-.568-.554.56.56 0 0 1 .568-.554c.312 0 .568.248.568.554a.56.56 0 0 1-.568.554z"/></svg>