<svg id="Layer_1" xmlns="http://www.w3.org/2000/svg" viewBox="0 0 535.8 114.1"><style>.st0{fill:#fff}.st1{fill:#294dff}.st2{fill:#1f95ff}.st3{fill:#5fbbff}</style><path class="st0" d="M185.4 25H200v64.9h-14.6V62.4h-24.6v27.5h-14.6V25h14.6v24.8h24.6zm70.7 63.2c-2.4.7-5.4 1.3-9.2 1.9-3.7.6-7.7.9-11.8.9-4.2 0-7.7-.6-10.4-1.7-2.8-1.1-5-2.7-6.6-4.7-1.6-2-2.8-4.5-3.5-7.3-.7-2.8-1-5.9-1-9.3V40.6h14v25.8c0 4.5.6 7.7 1.8 9.7 1.2 2 3.4 3 6.7 3 1 0 2.1 0 3.2-.1s2.1-.2 3-.3v-38h14v47.5zm59-22.9c0 3.9-.6 7.5-1.7 10.7-1.2 3.2-2.8 5.9-5 8.2-2.2 2.2-4.9 4-8.1 5.2-3.2 1.2-6.8 1.8-10.9 1.8-1.7 0-3.5-.1-5.3-.2-1.8-.2-3.7-.4-5.4-.6-1.8-.2-3.5-.5-5.1-.9-1.6-.3-3.1-.7-4.3-1.1V25.1l14-2.2v18.9c1.6-.7 3.2-1.2 4.9-1.6 1.7-.4 3.5-.6 5.4-.6 3.5 0 6.6.6 9.3 1.8 2.7 1.2 4.9 3 6.7 5.2 1.8 2.2 3.2 5 4.1 8.1.9 3.2 1.4 6.7 1.4 10.6m-14.3-.4c0-9-3.3-13.5-9.9-13.5-1.4 0-2.9.2-4.3.6-1.4.4-2.5.8-3.4 1.4v25.4c.7.1 1.6.2 2.6.3 1.1.1 2.2.1 3.5.1 3.8 0 6.7-1.3 8.6-3.9 2-2.6 2.9-6.1 2.9-10.4m39.2 15c2.6 0 4.4-.2 5.4-.8 1.1-.5 1.6-1.5 1.6-2.9 0-1.1-.7-2.1-2.1-3-1.4-.8-3.5-1.8-6.3-2.9-2.2-.8-4.2-1.7-6-2.5-1.8-.9-3.3-1.9-4.5-3.1-1.3-1.2-2.2-2.7-2.9-4.4-.7-1.7-1-3.7-1-6.1 0-4.6 1.7-8.3 5.2-11 3.4-2.7 8.2-4 14.1-4 3 0 5.9.3 8.6.8 2.7.5 4.9 1.1 6.6 1.7l-2.4 10.9c-1.6-.6-3.4-1.1-5.3-1.5-1.9-.4-4-.7-6.4-.7-4.4 0-6.6 1.2-6.6 3.7 0 .6.1 1.1.3 1.5.2.4.6.9 1.1 1.3.6.4 1.3.8 2.3 1.3 1 .5 2.2 1 3.7 1.6 3.1 1.1 5.6 2.3 7.6 3.4s3.6 2.3 4.7 3.6c1.2 1.3 2 2.7 2.4 4.3s.7 3.4.7 5.4c0 4.9-1.8 8.5-5.5 11s-8.8 3.7-15.5 3.7c-4.4 0-8-.4-10.9-1.1-2.9-.7-4.9-1.4-6-1.9l2.3-11.3c2.4.9 4.8 1.7 7.3 2.2 2.6.5 5.1.8 7.5.8m30.8-54.8l14-2.2v17.8h16.8v11.6h-16.8v17.3c0 2.9.5 5.3 1.5 7 1 1.8 3.1 2.6 6.2 2.6 1.5 0 3-.1 4.6-.4s3-.7 4.4-1.2l2 10.9c-1.7.7-3.6 1.3-5.6 1.8-2.1.5-4.6.8-7.6.8-3.8 0-7-.5-9.5-1.5s-4.5-2.5-6-4.3c-1.5-1.8-2.5-4.1-3.1-6.7-.6-2.6-.9-5.5-.9-8.7V25.1zm57.9 14.2c4.1 0 7.6.5 10.3 1.4s5 2.3 6.6 4c1.7 1.8 2.8 3.9 3.5 6.4.7 2.5 1 5.3 1 8.3v29.1c-2 .4-4.8 1-8.3 1.5-3.6.6-7.9.9-12.9.9-3.2 0-6.1-.3-8.7-.8-2.6-.6-4.8-1.5-6.7-2.8-1.9-1.3-3.3-3-4.3-5-1-2.1-1.5-4.6-1.5-7.6 0-2.9.6-5.3 1.7-7.3 1.2-2 2.7-3.6 4.6-4.8 1.9-1.2 4.2-2 6.7-2.6 2.5-.5 5.1-.8 7.8-.8 1.8 0 3.4.1 4.8.2 1.4.2 2.5.4 3.4.6v-1.3c0-2.4-.7-4.3-2.2-5.7-1.4-1.4-3.9-2.2-7.5-2.2-2.4 0-4.7.2-7 .5s-4.3.8-6 1.5l-1.8-11.2c.8-.2 1.8-.5 3-.8 1.2-.3 2.5-.5 4-.8 1.4-.2 3-.4 4.5-.6 1.8 0 3.4-.1 5-.1m1.2 40.9c1.4 0 2.7 0 3.9-.1 1.2-.1 2.2-.2 3-.3V69.2c-.6-.1-1.4-.2-2.5-.4-1.1-.1-2.2-.2-3.1-.2-1.3 0-2.5.1-3.7.2-1.2.2-2.2.5-3 .9-.9.4-1.6 1-2.1 1.8s-.8 1.7-.8 2.8c0 2.2.7 3.7 2.2 4.5 1.5 1 3.5 1.4 6.1 1.4m54.3-57.1c2.6 0 5 .3 7.2.8s3.9 1 5.1 1.5l-2.7 11.2c-1.2-.6-2.6-1-4.1-1.3-1.5-.3-2.8-.4-4.1-.4-1.7 0-3.1.2-4.3.7-1.2.5-2.1 1.1-2.7 1.9-.7.8-1.1 1.8-1.4 2.9-.3 1.1-.4 2.3-.4 3.7v2.4H494v11.6h-17.2v31.8h-14v-46c0-6.4 1.8-11.4 5.4-15.2 3.6-3.7 9-5.6 16-5.6m39.3 0c2.6 0 5 .3 7.2.8s3.9 1 5.1 1.5L533 36.6c-1.2-.6-2.6-1-4.1-1.3-1.5-.3-2.8-.4-4.1-.4-1.7 0-3.1.2-4.3.7-1.2.5-2.1 1.1-2.7 1.9-.7.8-1.1 1.8-1.4 2.9-.3 1.1-.4 2.3-.4 3.7v2.4h17.2v11.6H516v31.8h-14v-46c0-6.4 1.8-11.4 5.4-15.2 3.7-3.7 9-5.6 16.1-5.6"/><path class="st1" d="M13.7 98.9l25.4 14.7c1.4.8 3.2.5 4.3-.8 3.2-3.9 8-6.3 13.4-6.3s10.3 2.5 13.5 6.4c1.1 1.3 2.9 1.7 4.3.8l25.5-14.8c1.7-1 2.2-3.2 1.1-4.8-1.2-1.8-2.6-3.6-4-5.3-3.8-4.4-8.5-8.1-13.6-11l-3.4-2-.2-.1-.6-.3c-1.1-.5-2.3-.2-3.1.6-4.8 5.3-11.7 8.6-19.5 8.6-7.7 0-14.6-3.3-19.4-8.6-.8-.9-2-1.1-3.1-.6l-4 2.3c-6.4 3.7-12.1 8.6-16.5 14.5-.5.6-.9 1.3-1.3 1.9-1 1.7-.4 3.8 1.2 4.8"/><path class="st2" d="M17.9 15.1c-1.4.8-2 2.5-1.5 4.1 1.8 4.7 1.5 10.2-1.2 14.9-2.7 4.7-7.3 7.6-12.3 8.4-1.7.2-2.9 1.6-2.9 3.3v29.3c0 1.9 1.6 3.5 3.5 3.3 7.7-.5 15-2.6 21.5-6.1l3.1-1.8c.8-.5 1.7-1.1 2.5-1.6 1-.7 1.4-1.9 1-3-2-6.7-1.4-14.3 2.4-20.9 3.9-6.6 10.1-10.9 17.1-12.5 1.1-.2 2-1.2 2.1-2.3.1-1.3.2-2.7.2-4.1V24c-.1-8-2-15.5-5.3-22.3-.8-1.7-3-2.4-4.7-1.4L17.9 15.1z"/><path class="st3" d="M98.7 34c-2.7-4.7-3-10.1-1.2-14.9.6-1.5 0-3.3-1.5-4.1L70.3.4c-1.7-1-3.8-.3-4.7 1.4-3.3 6.8-5.2 14.3-5.3 22.3v2.1c0 1.4.1 2.7.2 4.1.1 1.1 1 2.1 2.1 2.3 6.9 1.5 13.2 5.8 17.1 12.5 3.8 6.6 4.5 14.2 2.4 20.9-.3 1.1.1 2.3 1 3 .8.6 1.6 1.1 2.5 1.6l3.1 1.8c6.5 3.4 13.7 5.6 21.5 6.1 1.9.1 3.5-1.4 3.5-3.3V45.9c0-1.6-1.2-3-2.8-3.3-4.9-.9-9.5-3.9-12.2-8.6"/></svg>