<svg xmlns="http://www.w3.org/2000/svg" width="19.008" height="22" viewBox="0 0 19.008 22"><path fill="#FFF" d="M12.944 3.517C14.467 1.792 14.149 0 14.149 0s-2.13.011-3.661 1.915C9.125 3.608 9.473 5.058 9.473 5.058s1.846.302 3.471-1.541zm2.924 8.141c0-2.951 2.521-4.167 2.521-4.167s-1.289-2.2-4.567-2.2c-1.903 0-3.366 1.021-4.155 1.021-.918 0-2.288-.961-4.055-.961C2.896 5.352 0 7.646 0 12.021 0 16.468 3.422 22 6.13 22c.945 0 2.397-.897 3.859-.897 1.435 0 2.495.866 3.857.866 2.966 0 5.162-5.834 5.162-5.834s-3.14-1.145-3.14-4.477z"/></svg>