<svg xmlns="http://www.w3.org/2000/svg" width="19.112" height="22" viewBox="0 0 19.112 22"><path fill-rule="evenodd" clip-rule="evenodd" fill="#FFF" d="M18.733 19.26c-.89.692-1.979.991-2.872 1.783-1.09 1.09-3.47 1.487-3.865-.098-1.09-.694-3.766-.496-4.36-.397-.614 1.487-1.923 1.585-2.954 1.188-1.466-.593-2.695-.593-4.172-1.287-.446-.198-.595-.497-.465-.893.237-.694.545-1.188.346-1.784-.218-.692-.129-1.485.802-1.782 1.199-.2 1.239-.991 1.804-1.189.803-4.757 2.517-6.145 3.607-7.71-.049-1.556-.277-2.814-.178-4.361.684-4.192 5.965-3.102 6.561.208.199 1.129 0 1.982.199 3.062.396 1.765 2.08 2.755 2.675 4.044.692 1.486 1.686 3.764.893 5.152.595.198.692.794.793 1.389.097.792 1.187.989 1.485 1.585.198.396 0 .793-.299 1.09zM2.006 16.386c-1.229.199-1.338.694-1.07 1.29.436.989-.238 1.287-.248 1.881-.01.793 3.231 1.191 4.004 1.486 2.487.992 2.458-1.288 1.437-2.576-.833-.842-1.497-3.251-2.577-3.271-.664.001-1.089 1.19-1.546 1.19zM7.071 5.297c.079-.109.168-.198.316-.317-.704-1.18.625-1.854.645-.437.099-.04.198-.099.297-.148-.089-2.645-2.21-1.407-1.258.902zm.376-1.23c.089.09.188.149.287.279.11-.427-.465-.387-.287-.279zm1.834.417l.456.179c.188-2.042 1.447-.803.872.396.199.059.297.12.396.12v-.011c.694-3.052-1.685-3.013-1.724-.684zm1.03-.455c.198.158.099.257.198.228.267-.19-.396-.664-.198-.228zm.397 1.308c-.991-.219-1.884-.982-2.776-.486-.435.198-1.724 1.289-1.069 1.477.524.317 1.11.455 1.665.466.891.009 1.585-.912 2.18-1.041.694-.041-.199.346-.396.476-.793.624-2.082 1.08-3.023.644.842 1.585 2.626.267 3.519-.238.297-.139.397-.169.397-.367 0-.673 0-.772-.497-.931zm.497 1.407c-1.587 1.814-3.273 2.507-4.164.208-.575 2.725-2.557 4.588-2.626 7.551.099 1.19 4.013 1.784 2.15 3.766.386.396.495.792.802 1.189 1.655.595 4.232 0 4.825-1.585.299-.299-.099-1.288 0-2.083.102-.692.993-.892 1.389-.892 1.229-3.348-2.259-5.785-2.376-8.154zm5.746 10.534c-.297-.494-.297-1.386-.793-1.487-.892.754-2.468 1.378-2.477-.197-.694-.198-.893.197-.793 1.09.298 1.487-.695 3.47 0 4.065.892.791 1.683.494 2.479-.2.892-.793 2.772-1.288 2.772-2.081 0-.792-.891-.792-1.188-1.19z"/></svg>