<svg xmlns="http://www.w3.org/2000/svg" width="22" height="21.986" viewBox="0 0 22 21.986"><path fill="#FFF" d="M21.197 15.113c-.031.077-.057.15-.09.229a11.057 11.057 0 0 1-2.238 3.338c-.053.052-.096.102-.15.152-.02.021-.042.036-.062.058-1.441 1.371-3.757 2.868-7.114 3.084l-.053.003c-.258.016-.532.009-.803.009-.16-.004-.318-.013-.477-.023 2.259-3.762 3.654-6.149 4.511-7.647a4.946 4.946 0 0 0 1.032-1.846c.185-.341.247-.47.247-.47s.076-.14-.036-.665c.007-.11.033-.217.033-.331a4.963 4.963 0 0 0-1.031-3.011C17.797 7.994 21 8 21 8s.761.812.973 2.473c.007.175.027.349.027.527 0 1.456-.289 2.843-.803 4.113zm-13.19-4.11a2.998 2.998 0 0 1 2.995-2.999 2.998 2.998 0 0 1 2.994 2.999c0 1.656-1.342 3-2.994 3a2.998 2.998 0 0 1-2.995-3zM0 11c0-1.733.413-3.37 1.129-4.83 6.275 8.279 5.889 7.547 6.323 8.35a4.974 4.974 0 0 0 3.55 1.485c.284 0 .561-.038.831-.084a353.041 353.041 0 0 1-3.599 5.715C3.5 20.407 0 16.119 0 11zm20.789-4.999H16c-1.413 0-2.921-.058-4 0-.337-.071-.64.003-.998.003-3.366 0-4.689 2.354-4.689 3.402-2.103-2.754-3.487-4.427-4.04-5.084A10.991 10.991 0 0 1 8.657.256a15.957 15.957 0 0 1 2.266-.252C10.949.004 10.974 0 11 0c4.271 0 7.968 2.44 9.789 6.001z"/></svg>