<svg xmlns="http://www.w3.org/2000/svg" width="27.605" height="13.809" viewBox="0 0 27.605 13.809"><path fill="#FFF" d="M.299 13.509h1.512V4.034H.299v9.475zM1.055 0C.475 0 0 .475 0 1.055S.475 2.11 1.055 2.11 2.11 1.635 2.11 1.055 1.635 0 1.055 0zm9.167.527c-3.586 0-5.827 2.558-5.827 6.636 0 4.062 2.188 6.646 5.827 6.646 3.621 0 5.801-2.594 5.801-6.646-.001-4.069-2.198-6.636-5.801-6.636zm0 11.822c-2.637 0-4.201-2.039-4.201-5.187 0-3.173 1.617-5.177 4.201-5.177 2.593 0 4.175 2.004 4.175 5.177-.001 3.148-1.574 5.187-4.175 5.187zm13.702-5.898L22.597 6.1c-1.749-.448-2.443-1.021-2.443-2.014 0-1.282 1.116-2.127 2.805-2.127 1.582 0 2.653.773 2.874 2.074h1.591c-.132-2.048-1.96-3.507-4.412-3.507-2.681 0-4.482 1.459-4.482 3.612 0 1.802.993 2.839 3.287 3.419l1.623.423c1.749.438 2.54 1.125 2.54 2.206 0 1.257-1.257 2.18-2.962 2.18-1.802 0-3.066-.844-3.261-2.171h-1.6c.167 2.188 2.021 3.612 4.711 3.612 2.899 0 4.736-1.485 4.736-3.814.002-1.863-1.052-2.883-3.68-3.542z"/></svg>