<svg xmlns="http://www.w3.org/2000/svg" width="32" height="32" viewBox="134 120 32 32"><title>trello-logo-blue</title><g transform="translate(50 36)"><linearGradient id="a" gradientUnits="userSpaceOnUse" x1="384.815" y1="106.782" x2="384.815" y2="106.623" gradientTransform="matrix(200 0 0 -200 -76863 21440.5)"><stop offset="0" stop-color="#0091e6"/><stop offset="1" stop-color="#0079bf"/></linearGradient><path fill="url(#a)" d="M88 84h24a4 4 0 0 1 4 4v24a4 4 0 0 1-4 4H88a4 4 0 0 1-4-4V88a4 4 0 0 1 4-4z"/><path fill="#FFF" d="M104 88.16h5.92a1.92 1.92 0 0 1 1.92 1.92v10.16a1.92 1.92 0 0 1-1.92 1.92H104a1.92 1.92 0 0 1-1.92-1.92V90.08c0-1.06.859-1.92 1.92-1.92zm-13.92 0H96a1.92 1.92 0 0 1 1.92 1.92v18.16a1.92 1.92 0 0 1-1.92 1.92h-5.92a1.92 1.92 0 0 1-1.92-1.92V90.08c0-1.06.86-1.92 1.92-1.92z"/></g></svg>