<?xml version="1.0" encoding="UTF-8"?>
<svg width="161px" height="128px" viewBox="0 0 161 128" version="1.1" xmlns="http://www.w3.org/2000/svg" xmlns:xlink="http://www.w3.org/1999/xlink">
    <!-- Generator: Sketch 51.3 (57544) - http://www.bohemiancoding.com/sketch -->
    <title>Projects-teamworkLogo01_teamworkHorizontalWhite copy</title>
    <desc>Created with Sketch.</desc>
    <defs></defs>
    <g id="Page-1" stroke="none" stroke-width="1" fill="none" fill-rule="evenodd">
        <g id="Projects-teamworkLogo01_teamworkHorizontalWhite-copy" fill-rule="nonzero">
            <g id="artwork">
                <circle id="Oval" fill="#FF22B1" cx="117.88" cy="86" r="15"></circle>
                <path d="M160.05,48 C160.05,30.326888 145.723112,16 128.05,16 L63.65,16 C61.7209034,6.70364724 53.5443537,0.0289127507 44.05,0 L20.05,0 C9.01798134,0.0329480111 0.0829480111,8.96798134 0.05,20 L0.05,96 C0.05,113.673112 14.376888,128 32.05,128 L128.05,128 C145.723112,128 160.05,113.673112 160.05,96 L160.05,48 Z M128.05,112 L32.05,112 C23.213444,112 16.05,104.836556 16.05,96 L16.05,32 L128.05,32 C136.886556,32 144.05,39.163444 144.05,48 L144.05,96 C144.050002,104.832652 136.892651,111.99448 128.06,112 L128.05,112 Z" id="Shape" fill="#FFFFFF"></path>
            </g>
        </g>
    </g>
</svg>