<svg xmlns="http://www.w3.org/2000/svg" width="38.395" height="32" viewBox="-3.198 -2.665 38.395 32"><path fill="#B3DCFF" d="M16-2.665C5.664-2.665-2.432 10.484-3.198 21.59.044 27.219 7.866 29.335 16 29.335s15.954-2.116 19.197-7.745C34.432 10.484 26.336-2.665 16-2.665z"/><path fill="#5ECC62" d="M27.966 11.14c-2.27-2.925-5.161-6.021-6.841-6.021-1.676 0-6.363 8.3-8.514 8.3-2.15 0-3.268-3.777-5.913-3.763-3.602.021-7.133 10.61-7.133 10.61s1.46 6.475 16.735 6.475c15.276 0 16.497-6.367 16.497-6.367s-1.571-5.028-4.831-9.234z"/><path d="M7.813 19.362a1.936 1.936 0 1 1 3.872.002 1.936 1.936 0 0 1-3.872-.002m12.503 0a1.935 1.935 0 1 0 3.87.002 1.935 1.935 0 0 0-3.87-.002m-.348 2.81a.595.595 0 0 0-1.055-.552c-.033.06-.81 1.458-2.865 1.458-2.021 0-2.938-1.424-2.98-1.49a.595.595 0 0 0-1.016.619c.05.085 1.282 2.063 3.997 2.063 2.801 0 3.874-2.013 3.919-2.098z"/><path fill="#00AD45" d="M12.851 16.96c-2.373 0-3.589-2.34-4.248-3.786-.593-1.3-.696-3.356-2.378-3.414.166-.065.324-.104.474-.104 2.645 0 3.763 3.763 5.913 3.763 2.15 0 6.838-8.3 8.514-8.3.317 0 .674.112 1.06.31-.286-.039-.651-.012-.934.272-.544.542-5.464 11.259-8.401 11.259z"/></svg>