<svg width="28" height="31" xmlns="http://www.w3.org/2000/svg"><g fill-rule="nonzero" fill="none"><path fill="#979797" d="M5.549 12.122v-1.529h8.185v1.529z"/><path fill="#222E50" d="M5.53 17v-2.405h2.716V17zM10.035 17v-2.405h2.714V17zM14.538 17v-2.405h2.715V17zM19.042 17v-2.405h2.715V17zM5.53 21v-2.405h2.716V21zM10.035 21v-2.405h2.714V21z"/><path fill="#979797" d="M14.538 21v-2.405h2.715V21z"/><path fill="#222E50" d="M19.042 21v-2.405h2.715V21zM5.53 25v-2.405h2.716V25zM10.035 25v-2.405h2.714V25zM14.538 25v-2.405h2.715V25zM19.042 25v-2.405h2.715V25z"/><path stroke="#222E50" stroke-width="2.5" d="M2 7.03v21.94h23.97V7.03z"/><path d="M2 5.25h23.982M6.485 1.5v4M21.485 1.5v4" stroke="#222E50" stroke-width="2.5" stroke-linecap="square"/></g></svg>