<svg xmlns="http://www.w3.org/2000/svg" width="34" height="40" viewBox="1038.737 1232.321 34 40"><path fill="#27346A" d="M1067.687 1235.338c-1.858-2.111-5.216-3.017-9.512-3.017h-12.468c-.878 0-1.626.637-1.764 1.501l-5.191 32.828a1.068 1.068 0 0 0 1.058 1.233h7.698l1.933-12.225-.06.382a1.778 1.778 0 0 1 1.757-1.501h3.658c7.186 0 12.812-2.91 14.456-11.328.049-.249.091-.491.128-.728-.208-.109-.208-.109 0 0 .487-3.11-.006-5.228-1.693-7.145"/><path fill="#27346A" d="M1052.385 1241.363c.21-.1.44-.151.674-.151h9.774c1.158 0 2.237.075 3.224.233.276.044.551.096.824.157.387.085.769.189 1.145.312.485.162.938.35 1.353.57.489-3.113-.004-5.229-1.691-7.146-1.859-2.111-5.216-3.017-9.512-3.017h-12.469c-.878 0-1.625.638-1.763 1.501l-5.191 32.827a1.067 1.067 0 0 0 1.057 1.233h7.699l4.011-25.357c.077-.505.401-.94.865-1.162z"/><path fill="#2790C3" d="M1069.25 1243.212c-1.644 8.417-7.27 11.328-14.456 11.328h-3.659c-.878 0-1.62.637-1.756 1.501l-2.405 15.201a.935.935 0 0 0 .924 1.079h6.489a1.56 1.56 0 0 0 1.542-1.313l.063-.329 1.223-7.728.079-.428a1.56 1.56 0 0 1 1.542-1.312h.971c6.286 0 11.208-2.547 12.646-9.909.6-3.077.289-5.646-1.299-7.451-.481-.546-1.08-.998-1.776-1.366a20.75 20.75 0 0 1-.128.727z"/><path fill="#1F264F" d="M1067.657 1241.8c-.256-.075-.515-.14-.775-.198a14.37 14.37 0 0 0-.823-.156 20.394 20.394 0 0 0-3.226-.234h-9.773c-.233 0-.464.051-.674.153a1.55 1.55 0 0 0-.868 1.162l-2.077 13.133-.06.382a1.776 1.776 0 0 1 1.756-1.501h3.659c7.186 0 12.812-2.91 14.456-11.328.049-.249.09-.49.128-.728a8.85 8.85 0 0 0-1.352-.569 13.193 13.193 0 0 0-.371-.116"/></svg>