<svg xmlns="http://www.w3.org/2000/svg" xmlns:xlink="http://www.w3.org/1999/xlink" width="34.619" height="32" viewBox="-1.31 -1.21 34.619 32"><defs><path id="a" d="M-1.31 23.26a7.528 7.528 0 1 0 15.057.001A7.528 7.528 0 0 0-1.31 23.26m19.563 0a7.528 7.528 0 1 0 15.056 0c0-4.159-3.37-7.528-7.528-7.528s-7.528 3.369-7.528 7.528M8.471 6.318a7.53 7.53 0 1 0 15.056.002A7.53 7.53 0 0 0 8.47 6.318"/></defs><clipPath id="b"><use xlink:href="#a" overflow="visible"/></clipPath><radialGradient id="c" cx="-177.567" cy="-288.431" r=".335" gradientTransform="translate(10035.055 16291.742) scale(56.4237)" gradientUnits="userSpaceOnUse"><stop offset="0" stop-color="#ffb900"/><stop offset=".6" stop-color="#f95d8f"/><stop offset=".999" stop-color="#f95353"/><stop offset="1" stop-color="#f95353"/></radialGradient><path clip-path="url(#b)" fill="url(#c)" d="M-1.31-1.21h34.619v32H-1.31z"/></svg>