<svg width="27" height="35" xmlns="http://www.w3.org/2000/svg"><g transform="translate(2 2)" fill-rule="nonzero" fill="none"><path d="M12.547 29.725a109.104 109.104 0 0 0 4.319-5.693 70.516 70.516 0 0 0 2.839-4.328C21.825 16.17 23 13.276 23 11.373 23 5.092 17.851 0 11.5 0S0 5.092 0 11.373c0 2.701 2.309 7.235 6.134 12.659a109.104 109.104 0 0 0 4.319 5.693c.37.457.72.883 1.047 1.275.327-.392.678-.818 1.047-1.275z" stroke="#222E50" stroke-width="2.5"/><circle fill="#878C99" cx="11.5" cy="11.5" r="4.5"/></g></svg>