<svg width="30" height="30" xmlns="http://www.w3.org/2000/svg"><g fill-rule="nonzero" fill="none"><path d="M27.5 30h-25A2.5 2.5 0 0 1 0 27.5v-25A2.5 2.5 0 0 1 2.5 0h25A2.5 2.5 0 0 1 30 2.5v25a2.5 2.5 0 0 1-2.5 2.5zm.625-23.125c0-.689-.56-1.25-1.25-1.25H3.125c-.69 0-1.25.561-1.25 1.25v20c0 .691.56 1.25 1.25 1.25h23.75c.69 0 1.25-.559 1.25-1.25v-20zM25 13.75H12.5v-2.5H25v2.5zm0 5.628H12.5v-2.503H25v2.503zM25 25H12.5v-2.5H25V25z" fill="#222E50"/><path d="M5 22.455h5V25H5v-2.545zm0-5.728h5v2.548H5v-2.548zM5.536 11h3.928v2H5.536v-2z" fill="#878C99"/></g></svg>